# xmcd CD database file
#
# Track frame offsets:
#	150
#	11615
#	27117
#	36237
#	47740
#	58937
#	68967
#	77137
#	86585
#	98097
#	109765
#	121777
#	131227
#	141482
#	151907
#	159702
#	170932
#	184392
#	199042
#	213782
#	225632
#	235722
#	248072
#	258970
#	267772
#	276155
#
# Disc length: 3797 seconds
#
# Revision: 0
# Processed by: cddbd v1.5.2PL0 Copyright (c) Steve Scherf et al.
# Submitted via: CDex 1.70beta2
#
DISCID=720ed31a
DTITLE=King, Bob, and the Country Kings - Cdn. - OVM - Songs That Tell A Story
DYEAR=1900
DGENRE=Country
TTITLE0=Laurel Lee
TTITLE1=Give My Love To Rose
TTITLE2=Hey Honey
TTITLE3=Waltz of Two Broken Hearts
TTITLE4=Going Bacl to An Old Loce Affair
TTITLE5=Why Don't You Leave Me
TTITLE6=My Petite Marie
TTITLE7=If the Thing They Are True
TTITLE8=Be Carefull of the Stones You Throw
TTITLE9=She Went Without Saying Goodbye
TTITLE10=Pray For Me Mother of Mine
TTITLE11=Let's Make A Fair Trade
TTITLE12=Nothing Ventured, Nothing Gained
TTITLE13=Lonely City Park
TTITLE14=That's What's On Your Mind
TTITLE15=The All Canadian Boy
TTITLE16=My Home By the fraser
TTITLE17=My Son Calls Another Man Daddy
TTITLE18=Rose of Ol' Pawnee
TTITLE19=I dreamed About Mom Last Night
TTITLE20=No Parking Here
TTITLE21=Just Call On Me
TTITLE22=Boy With A Future
TTITLE23=I've Been Dreaming(& Marie)
TTITLE24=Between Our Hearts(& Marie)
TTITLE25=It's Goodbye and So Long To You(& Marie)
EXTD=
EXTT0=
EXTT1=
EXTT2=
EXTT3=
EXTT4=
EXTT5=
EXTT6=
EXTT7=
EXTT8=
EXTT9=
EXTT10=
EXTT11=
EXTT12=
EXTT13=
EXTT14=
EXTT15=
EXTT16=
EXTT17=
EXTT18=
EXTT19=
EXTT20=
EXTT21=
EXTT22=
EXTT23=
EXTT24=
EXTT25=
PLAYORDER=
